<svg width="1200" height="630" viewBox="0 0 1200 630" fill="none" xmlns="http://www.w3.org/2000/svg">
  <defs>
    <linearGradient id="bg" x1="120" y1="80" x2="1080" y2="550" gradientUnits="userSpaceOnUse">
      <stop stop-color="#11151B"/>
      <stop offset="1" stop-color="#1C2028"/>
    </linearGradient>
    <radialGradient id="glow" cx="0" cy="0" r="1" gradientUnits="userSpaceOnUse" gradientTransform="translate(835 182) rotate(118.124) scale(341.304 413.292)">
      <stop stop-color="#FF365F" stop-opacity="0.34"/>
      <stop offset="1" stop-color="#FF365F" stop-opacity="0"/>
    </radialGradient>
    <linearGradient id="machine" x1="0" y1="0" x2="1" y2="1">
      <stop stop-color="#363B45"/>
      <stop offset="1" stop-color="#1D2128"/>
    </linearGradient>
    <linearGradient id="screen" x1="0" y1="0" x2="1" y2="1">
      <stop stop-color="#15192B"/>
      <stop offset="1" stop-color="#1C2A4A"/>
    </linearGradient>
    <filter id="shadow" x="703" y="126" width="312" height="390" filterUnits="userSpaceOnUse" color-interpolation-filters="sRGB">
      <feFlood flood-opacity="0" result="BackgroundImageFix"/>
      <feColorMatrix in="SourceAlpha" type="matrix" values="0 0 0 0 0 0 0 0 0 0 0 0 0 0 0 0 0 0 127 0" result="hardAlpha"/>
      <feOffset dy="30"/>
      <feGaussianBlur stdDeviation="24"/>
      <feComposite in2="hardAlpha" operator="out"/>
      <feColorMatrix type="matrix" values="0 0 0 0 0 0 0 0 0 0 0 0 0 0 0 0 0 0 0.34 0"/>
      <feBlend mode="normal" in2="BackgroundImageFix" result="effect1_dropShadow_0_1"/>
      <feBlend mode="normal" in="SourceGraphic" in2="effect1_dropShadow_0_1" result="shape"/>
    </filter>
  </defs>

  <rect width="1200" height="630" rx="32" fill="url(#bg)"/>
  <rect x="34" y="34" width="1132" height="562" rx="24" stroke="rgba(255,255,255,0.08)" stroke-opacity="0.08"/>
  <circle cx="870" cy="205" r="250" fill="url(#glow)"/>

  <g opacity="0.22">
    <path d="M0 101.5H1200" stroke="white" stroke-opacity="0.12"/>
    <path d="M0 201.5H1200" stroke="white" stroke-opacity="0.08"/>
    <path d="M0 301.5H1200" stroke="white" stroke-opacity="0.08"/>
    <path d="M0 401.5H1200" stroke="white" stroke-opacity="0.08"/>
    <path d="M0 501.5H1200" stroke="white" stroke-opacity="0.08"/>
    <path d="M180 0V630" stroke="white" stroke-opacity="0.08"/>
    <path d="M360 0V630" stroke="white" stroke-opacity="0.08"/>
    <path d="M540 0V630" stroke="white" stroke-opacity="0.08"/>
    <path d="M720 0V630" stroke="white" stroke-opacity="0.08"/>
    <path d="M900 0V630" stroke="white" stroke-opacity="0.08"/>
    <path d="M1080 0V630" stroke="white" stroke-opacity="0.08"/>
  </g>

  <rect x="88" y="96" width="234" height="42" rx="21" fill="rgba(212,0,42,0.14)"/>
  <rect x="88.5" y="96.5" width="233" height="41" rx="20.5" stroke="#FF365F" stroke-opacity="0.35"/>
  <circle cx="113" cy="117" r="5" fill="#FF365F"/>
  <text x="128" y="124" fill="#FF365F" font-family="Urbanist, Arial, sans-serif" font-size="15" font-weight="700" letter-spacing="0.12em">PREMIUM OUTDOOR VENDING</text>

  <text x="88" y="228" fill="white" font-family="Urbanist, Arial, sans-serif" font-size="74" font-weight="800">
    <tspan x="88" dy="0">Extra omzet op uw locatie.</tspan>
    <tspan x="88" dy="88">Zonder investering.</tspan>
  </text>

  <text x="88" y="386" fill="#C8CDD7" font-family="Urbanist, Arial, sans-serif" font-size="27" font-weight="500">
    <tspan x="88" dy="0">Outdoor vending machines voor locaties met doorloop.</tspan>
    <tspan x="88" dy="42">Volledige ontzorging, realtime monitoring en 24/7 service.</tspan>
  </text>

  <rect x="88" y="478" width="294" height="64" rx="16" fill="#D4002A"/>
  <text x="124" y="518" fill="white" font-family="Urbanist, Arial, sans-serif" font-size="24" font-weight="700">Gratis locatiecheck</text>
  <text x="404" y="518" fill="#FFB8C4" font-family="Urbanist, Arial, sans-serif" font-size="22" font-weight="700">iniciovending.nl</text>

  <g filter="url(#shadow)">
    <rect x="751" y="144" width="216" height="294" rx="28" fill="url(#machine)"/>
    <rect x="769" y="162" width="180" height="102" rx="16" fill="url(#screen)"/>
    <text x="809" y="220" fill="#FF365F" font-family="Urbanist, Arial, sans-serif" font-size="20" font-weight="800" letter-spacing="0.18em">INICIO</text>
    <rect x="769" y="280" width="180" height="110" rx="16" fill="rgba(255,255,255,0.04)" stroke="rgba(255,255,255,0.08)"/>
    <g fill="rgba(255,255,255,0.06)">
      <rect x="785" y="296" width="42" height="24" rx="6"/>
      <rect x="837" y="296" width="42" height="24" rx="6"/>
      <rect x="889" y="296" width="42" height="24" rx="6"/>
      <rect x="785" y="330" width="42" height="24" rx="6"/>
      <rect x="837" y="330" width="42" height="24" rx="6"/>
      <rect x="889" y="330" width="42" height="24" rx="6"/>
      <rect x="785" y="364" width="42" height="24" rx="6"/>
      <rect x="837" y="364" width="42" height="24" rx="6"/>
      <rect x="889" y="364" width="42" height="24" rx="6"/>
    </g>
    <rect x="769" y="402" width="180" height="20" rx="10" fill="rgba(212,0,42,0.18)"/>
  </g>

  <rect x="901" y="104" width="186" height="62" rx="18" fill="rgba(255,255,255,0.08)"/>
  <text x="929" y="127" fill="#FF365F" font-family="Urbanist, Arial, sans-serif" font-size="26" font-weight="800">22"</text>
  <text x="929" y="150" fill="white" font-family="Urbanist, Arial, sans-serif" font-size="18" font-weight="600">Interactief touchscreen</text>

  <rect x="694" y="472" width="196" height="62" rx="18" fill="rgba(255,255,255,0.08)"/>
  <text x="722" y="495" fill="#FF365F" font-family="Urbanist, Arial, sans-serif" font-size="26" font-weight="800">24/7</text>
  <text x="722" y="518" fill="white" font-family="Urbanist, Arial, sans-serif" font-size="18" font-weight="600">Beschikbaar en beheerd</text>
</svg>
